<svg xmlns="http://www.w3.org/2000/svg" xmlns:xlink="http://www.w3.org/1999/xlink" viewBox="0 0 361.15 238.22"><defs><style>.a{fill:#6a2c70;}.b,.c,.d,.e,.f,.g,.h,.i,.j,.k{stroke-miterlimit:10;}.b{fill:url(#a);stroke:url(#b);}.c{fill:url(#c);stroke:url(#d);}.d{fill:url(#e);stroke:url(#f);}.e{fill:url(#g);stroke:url(#h);}.f{fill:url(#i);stroke:url(#j);}.g{fill:url(#k);stroke:url(#l);}.h{fill:url(#m);stroke:url(#n);}.i{fill:url(#o);stroke:url(#p);}.j,.k{stroke:#c36;}.j{stroke-width:0.25px;fill:url(#q);}.k{fill:#f9ed69;}</style><linearGradient id="a" x1="0.5" y1="144.92" x2="360.5" y2="144.92" gradientUnits="userSpaceOnUse"><stop offset="0" stop-color="#f08a5d"/><stop offset="0.03" stop-color="#f1995f"/><stop offset="0.1" stop-color="#f4b762"/><stop offset="0.17" stop-color="#f6cf65"/><stop offset="0.25" stop-color="#f8e067"/><stop offset="0.33" stop-color="#f9ea69"/><stop offset="0.44" stop-color="#f9ed69"/><stop offset="0.44" stop-color="#f9ec69"/><stop offset="0.69" stop-color="#f4b762"/><stop offset="0.87" stop-color="#f1965f"/><stop offset="0.97" stop-color="#f08a5d"/></linearGradient><radialGradient id="b" cx="180.5" cy="144.92" r="127.67" gradientUnits="userSpaceOnUse"><stop offset="0" stop-color="#f9ed69"/><stop offset="0.03" stop-color="#f9ea69"/><stop offset="0.69" stop-color="#f2a560"/><stop offset="1" stop-color="#f08a5d"/></radialGradient><linearGradient id="c" y1="4.5" y2="4.5" xlink:href="#a"/><radialGradient id="d" cy="4.5" r="127.67" xlink:href="#b"/><linearGradient id="e" y1="24.56" y2="24.56" xlink:href="#a"/><radialGradient id="f" cy="24.56" r="127.67" xlink:href="#b"/><linearGradient id="g" y1="44.62" y2="44.62" xlink:href="#a"/><radialGradient id="h" cy="44.62" r="127.67" xlink:href="#b"/><linearGradient id="i" y1="64.68" y2="64.68" xlink:href="#a"/><radialGradient id="j" cy="64.68" r="127.67" xlink:href="#b"/><linearGradient id="k" y1="84.74" y2="84.74" xlink:href="#a"/><radialGradient id="l" cy="84.74" r="127.67" xlink:href="#b"/><linearGradient id="m" y1="104.8" y2="104.8" xlink:href="#a"/><radialGradient id="n" cy="104.8" r="127.67" xlink:href="#b"/><linearGradient id="o" y1="124.86" y2="124.86" xlink:href="#a"/><radialGradient id="p" cy="124.86" r="127.67" xlink:href="#b"/><radialGradient id="q" cx="135.4" cy="74.42" r="94.04" gradientTransform="translate(0 -37.21) scale(1 1.5)" xlink:href="#b"/></defs><rect class="a" x="0.5" y="0.5" width="360" height="237.72"/><rect class="b" x="0.5" y="140.92" width="360" height="8"/><rect class="c" x="0.5" y="0.5" width="360" height="8"/><rect class="d" x="0.5" y="20.56" width="360" height="8"/><rect class="e" x="0.5" y="40.62" width="360" height="8"/><rect class="f" x="0.5" y="60.68" width="360" height="8"/><rect class="g" x="0.5" y="80.74" width="360" height="8"/><rect class="h" x="0.5" y="100.8" width="360" height="8"/><rect class="i" x="0.5" y="120.86" width="360" height="8"/><path class="j" d="M33.63,148.71c-2.37-4.65-19.32-47.37,2.36-92.25C57.51,11.91,104.17,1.24,109.37.16c8.16-.06,51.07,0,60.12,0a124.43,124.43,0,0,1,14.58,4.9c35.29,15.18,50.92,47,50.92,47A105.78,105.78,0,0,1,245.66,97c.48,21.9-2.92,40.36-6.66,51.72" transform="translate(0.5 0.21)"/><path class="k" d="M32,159.65v15.29a8.2,8.2,0,0,0-3.29-1.53,14.07,14.07,0,0,0-3.46-.56A7,7,0,0,0,21,174a4,4,0,0,0-1.57,3.54,4.83,4.83,0,0,0,1.2,3.3,25.34,25.34,0,0,0,3.75,3.3,38.34,38.34,0,0,1,3.37,2.77,20.89,20.89,0,0,1,2.56,3,15.34,15.34,0,0,1,2,4.18,18.77,18.77,0,0,1,.78,5.67,23.77,23.77,0,0,1-1.81,9.94,14,14,0,0,1-5,6,20,20,0,0,1-7.12,2.9,44.93,44.93,0,0,1-8.82.8c-1.32,0-3-.11-5-.32A20.91,20.91,0,0,0,3,218.78l-.42-16c1.76.48,3.2.82,4.33,1a19.46,19.46,0,0,0,3,.28,5,5,0,0,0,3.46-1.17,4.11,4.11,0,0,0,1.31-3.26,5.16,5.16,0,0,0-1.07-3.25,27.69,27.69,0,0,0-3.46-3.58c-1.31-1.18-2.39-2.2-3.21-3.06a20.17,20.17,0,0,1-2.39-3.1,16,16,0,0,1-1.85-4.26,20,20,0,0,1-.7-5.51,25.21,25.21,0,0,1,.53-4.59,20.29,20.29,0,0,1,2.35-5.95,15.1,15.1,0,0,1,5.69-5.51q3.87-2.3,10.13-2.29a57,57,0,0,1,5.77.32A52.29,52.29,0,0,1,32,159.65Z" transform="translate(0.5 0.21)"/><path class="k" d="M35.09,199.07V160H50.58v36.85a9.88,9.88,0,0,0,1.11,5.07,4,4,0,0,0,3.75,1.85,4,4,0,0,0,3.75-1.85,9.88,9.88,0,0,0,1.11-5.07V160H75.79v39.1q0,10.14-5.19,15.2t-15.16,5.07q-10,0-15.16-5.07T35.09,199.07Z" transform="translate(0.5 0.21)"/><path class="k" d="M79.83,217.89V160h6.92l22.9,25.5V160h15.49v57.92h-7.42L95.31,193.28v24.61Z" transform="translate(0.5 0.21)"/><path class="k" d="M185.36,200.92,184,218.38a34.15,34.15,0,0,1-8.08,1A30,30,0,0,1,163.77,217a26.71,26.71,0,0,1-9.27-6.64,28.92,28.92,0,0,1-5.8-9.89,36.17,36.17,0,0,1-2-12.07,31.19,31.19,0,0,1,2.14-11.5,28.87,28.87,0,0,1,6.14-9.62,28.21,28.21,0,0,1,9.39-6.43,29.47,29.47,0,0,1,11.66-2.29c1.59,0,3.07.05,4.45.16a15.81,15.81,0,0,1,3.13.48l1.07,17.62a8.61,8.61,0,0,0-3.42-1.45,17.84,17.84,0,0,0-4.16-.56,13.76,13.76,0,0,0-10,3.82,12.87,12.87,0,0,0-4,9.69,17.34,17.34,0,0,0,1.15,6.6,12.63,12.63,0,0,0,3.13,4.62,12.89,12.89,0,0,0,4.53,2.7,16,16,0,0,0,5.27.88,18.79,18.79,0,0,0,4.41-.52A9.76,9.76,0,0,0,185.36,200.92Z" transform="translate(0.5 0.21)"/><path class="k" d="M188.16,217.89V160h15.48v20.28H216.5V160H232v57.92H216.5v-22H203.64v22Z" transform="translate(0.5 0.21)"/><path class="k" d="M232.64,217.89,253.4,160h17.47l19.93,57.92H274.08l-2.14-6.43H251.51l-2.14,6.43Zm34.68-20.75-5.52-16.09h-.16l-5.35,16.09Z" transform="translate(0.5 0.21)"/><path class="k" d="M319.39,159.65v15.29a8.32,8.32,0,0,0-3.3-1.53,14,14,0,0,0-3.46-.56,7.06,7.06,0,0,0-4.2,1.12,4.07,4.07,0,0,0-1.56,3.54,4.82,4.82,0,0,0,1.19,3.3,26.43,26.43,0,0,0,3.75,3.3,38.65,38.65,0,0,1,3.38,2.77,20.23,20.23,0,0,1,2.55,3,15.05,15.05,0,0,1,2,4.18,18.77,18.77,0,0,1,.78,5.67,23.61,23.61,0,0,1-1.81,9.94,14.06,14.06,0,0,1-5,6,20.15,20.15,0,0,1-7.13,2.9,44.93,44.93,0,0,1-8.82.8c-1.31,0-3-.11-5-.32a20.7,20.7,0,0,0-2.39-.24l-.41-16c1.76.48,3.2.82,4.32,1a19.46,19.46,0,0,0,3,.28,5,5,0,0,0,3.46-1.17,4.12,4.12,0,0,0,1.32-3.26,5.22,5.22,0,0,0-1.07-3.25,29.14,29.14,0,0,0-3.46-3.58q-2-1.77-3.22-3.06a19.53,19.53,0,0,1-2.38-3.1,16.31,16.31,0,0,1-1.86-4.26,20,20,0,0,1-.7-5.51,24.47,24.47,0,0,1,.54-4.59,20.24,20.24,0,0,1,2.34-5.95,15.18,15.18,0,0,1,5.69-5.51q3.87-2.3,10.13-2.29a56.84,56.84,0,0,1,5.77.32A52.92,52.92,0,0,1,319.39,159.65Z" transform="translate(0.5 0.21)"/><path class="k" d="M323.75,217.89V160h31.8l2.39,15.29h-18.7v6h12.19v15.29H339.24v6H360l-4,15.28Z" transform="translate(0.5 0.21)"/></svg>