<svg xmlns="http://www.w3.org/2000/svg" xmlns:xlink="http://www.w3.org/1999/xlink" viewBox="0 0 361.2 238.2"><defs><style>.a{fill:#2a1a5e;}.b,.c,.d,.e,.f,.g,.h,.i,.j,.k{stroke-miterlimit:10;}.b{fill:url(#a);stroke:url(#b);}.c{fill:url(#c);stroke:url(#d);}.d{fill:url(#e);stroke:url(#f);}.e{fill:url(#g);stroke:url(#h);}.f{fill:url(#i);stroke:url(#j);}.g{fill:url(#k);stroke:url(#l);}.h{fill:url(#m);stroke:url(#n);}.i{fill:url(#o);stroke:url(#p);}.j,.k{stroke:#f45905;}.j{stroke-width:0.25px;fill:url(#q);}.k{fill:#fbe555;}</style><linearGradient id="a" x1="0.5" y1="144.92" x2="360.5" y2="144.92" gradientUnits="userSpaceOnUse"><stop offset="0" stop-color="#f08a5d"/><stop offset="0.03" stop-color="#f1995f"/><stop offset="0.1" stop-color="#f4b762"/><stop offset="0.17" stop-color="#f6cf65"/><stop offset="0.25" stop-color="#f8e067"/><stop offset="0.33" stop-color="#f9ea69"/><stop offset="0.44" stop-color="#f9ed69"/><stop offset="0.44" stop-color="#f9ec69"/><stop offset="0.69" stop-color="#f4b762"/><stop offset="0.87" stop-color="#f1965f"/><stop offset="0.97" stop-color="#f08a5d"/></linearGradient><radialGradient id="b" cx="180.5" cy="144.92" r="127.67" gradientUnits="userSpaceOnUse"><stop offset="0" stop-color="#fbe555"/><stop offset="1" stop-color="#fb9224"/></radialGradient><linearGradient id="c" y1="4.5" y2="4.5" xlink:href="#a"/><radialGradient id="d" cy="4.5" r="127.67" xlink:href="#b"/><linearGradient id="e" y1="24.56" y2="24.56" xlink:href="#a"/><radialGradient id="f" cy="24.56" r="127.67" xlink:href="#b"/><linearGradient id="g" y1="44.62" y2="44.62" xlink:href="#a"/><radialGradient id="h" cy="44.62" r="127.67" xlink:href="#b"/><linearGradient id="i" y1="64.68" y2="64.68" xlink:href="#a"/><radialGradient id="j" cy="64.68" r="127.67" xlink:href="#b"/><linearGradient id="k" y1="84.74" y2="84.74" xlink:href="#a"/><radialGradient id="l" cy="84.74" r="127.67" xlink:href="#b"/><linearGradient id="m" y1="104.8" y2="104.8" xlink:href="#a"/><radialGradient id="n" cy="104.8" r="127.67" xlink:href="#b"/><linearGradient id="o" y1="124.86" y2="124.86" xlink:href="#a"/><radialGradient id="p" cy="124.86" r="127.67" xlink:href="#b"/><radialGradient id="q" cx="135.4" cy="74.42" r="94.04" gradientUnits="userSpaceOnUse"><stop offset="0" stop-color="#fbe555"/><stop offset="0.29" stop-color="#f9b93c"/><stop offset="0.77" stop-color="#f57415"/><stop offset="1" stop-color="#f45905"/></radialGradient></defs><rect class="a" x="0.5" y="0.5" width="360" height="237.72"/><rect class="b" x="0.5" y="140.9" width="360" height="8"/><rect class="c" x="0.5" y="0.5" width="360" height="8"/><rect class="d" x="0.5" y="20.6" width="360" height="8"/><rect class="e" x="0.5" y="40.6" width="360" height="8"/><rect class="f" x="0.5" y="60.7" width="360" height="8"/><rect class="g" x="0.5" y="80.7" width="360" height="8"/><rect class="h" x="0.5" y="100.8" width="360" height="8"/><rect class="i" x="0.5" y="120.9" width="360" height="8"/><path class="j" d="M33.6,148.7c-2.3-4.6-19.3-47.4,2.4-92.2S104.2,1.2,109.4.2h60.1a108.2,108.2,0,0,1,14.6,4.9c35.3,15.2,50.9,47,50.9,47A107.9,107.9,0,0,1,245.7,97c.4,21.9-3,40.4-6.7,51.7" transform="translate(0.5 0.2)"/><path class="k" d="M32,159.7v15.2a10.2,10.2,0,0,0-3.3-1.5,14.1,14.1,0,0,0-3.5-.6A7,7,0,0,0,21,174a4.1,4.1,0,0,0-1.6,3.5,4.8,4.8,0,0,0,1.2,3.3,28.8,28.8,0,0,0,3.8,3.3,39.3,39.3,0,0,1,3.4,2.8,19.8,19.8,0,0,1,2.5,3,14.2,14.2,0,0,1,2,4.1,17.1,17.1,0,0,1,.8,5.7,23.7,23.7,0,0,1-1.8,9.9,14.2,14.2,0,0,1-5,6,19.4,19.4,0,0,1-7.1,2.9,40,40,0,0,1-8.8.8l-5-.3L3,218.8l-.4-16a41.1,41.1,0,0,0,4.3,1l3,.3a4.7,4.7,0,0,0,3.4-1.2,4.2,4.2,0,0,0,1.4-3.3,5.2,5.2,0,0,0-1.1-3.2,22.6,22.6,0,0,0-3.5-3.6c-1.3-1.2-2.4-2.2-3.2-3.1a20.9,20.9,0,0,1-2.4-3.1,16.1,16.1,0,0,1-1.8-4.2,19.3,19.3,0,0,1-.7-5.5,29.1,29.1,0,0,1,.5-4.6,23.4,23.4,0,0,1,2.4-6,15.6,15.6,0,0,1,5.6-5.5,20.3,20.3,0,0,1,10.2-2.3l5.7.3A55,55,0,0,1,32,159.7Z" transform="translate(0.5 0.2)"/><path class="k" d="M35.1,199.1V160H50.6v36.8a10.2,10.2,0,0,0,1.1,5.1,4,4,0,0,0,3.7,1.8,4.1,4.1,0,0,0,3.8-1.8,10.2,10.2,0,0,0,1.1-5.1V160H75.8v39.1c0,6.7-1.7,11.8-5.2,15.2s-8.5,5-15.2,5-11.7-1.6-15.1-5S35.1,205.8,35.1,199.1Z" transform="translate(0.5 0.2)"/><path class="k" d="M79.8,217.9V160h6.9l22.9,25.5V160h15.5v57.9h-7.4L95.3,193.3v24.6Z" transform="translate(0.5 0.2)"/><path class="k" d="M185.4,200.9,184,218.4a37.2,37.2,0,0,1-8.1.9,29.4,29.4,0,0,1-12.1-2.3,26.1,26.1,0,0,1-9.3-6.7,28.8,28.8,0,0,1-5.8-9.9,36,36,0,0,1-2-12,29.4,29.4,0,0,1,2.2-11.5,26.7,26.7,0,0,1,6.1-9.6,27.8,27.8,0,0,1,9.4-6.5,30,30,0,0,1,11.6-2.3l4.5.2a15.3,15.3,0,0,1,3.1.5l1.1,17.6a9,9,0,0,0-3.4-1.5,23.7,23.7,0,0,0-4.2-.5,13.7,13.7,0,0,0-10,3.8,13,13,0,0,0-3.9,9.7,19,19,0,0,0,1.1,6.6,13.1,13.1,0,0,0,3.2,4.6,12.9,12.9,0,0,0,4.5,2.7,16,16,0,0,0,5.3.9,22,22,0,0,0,4.4-.5A10.5,10.5,0,0,0,185.4,200.9Z" transform="translate(0.5 0.2)"/><path class="k" d="M188.2,217.9V160h15.4v20.2h12.9V160H232v57.9H216.5v-22H203.6v22Z" transform="translate(0.5 0.2)"/><path class="k" d="M232.6,217.9,253.4,160h17.5l19.9,57.9H274.1l-2.2-6.4H251.5l-2.1,6.4Zm34.7-20.8-5.5-16h-.2l-5.3,16Z" transform="translate(0.5 0.2)"/><path class="k" d="M319.4,159.7v15.2a10.2,10.2,0,0,0-3.3-1.5,13.4,13.4,0,0,0-3.5-.6,7,7,0,0,0-4.2,1.2,4,4,0,0,0-1.5,3.5,4.8,4.8,0,0,0,1.2,3.3,26.8,26.8,0,0,0,3.7,3.3,39.3,39.3,0,0,1,3.4,2.8,15.3,15.3,0,0,1,2.5,3,14.3,14.3,0,0,1,2.1,4.1,20.2,20.2,0,0,1,.7,5.7,23.7,23.7,0,0,1-1.8,9.9,13.5,13.5,0,0,1-5,6,18.7,18.7,0,0,1-7.1,2.9,40,40,0,0,1-8.8.8l-5-.3-2.4-.2-.4-16a41.1,41.1,0,0,0,4.3,1l3,.3a5.1,5.1,0,0,0,3.5-1.2,4.5,4.5,0,0,0,1.3-3.3,5.2,5.2,0,0,0-1.1-3.2,26.3,26.3,0,0,0-3.4-3.6c-1.4-1.2-2.4-2.2-3.3-3.1a15.6,15.6,0,0,1-2.3-3.1,16.2,16.2,0,0,1-1.9-4.2,19.3,19.3,0,0,1-.7-5.5,29.1,29.1,0,0,1,.5-4.6,23.4,23.4,0,0,1,2.4-6,15.1,15.1,0,0,1,5.7-5.5c2.5-1.5,5.9-2.3,10.1-2.3l5.8.3A52.7,52.7,0,0,1,319.4,159.7Z" transform="translate(0.5 0.2)"/><path class="k" d="M323.8,217.9V160h31.8l2.3,15.3H339.2v6h12.2v15.3H339.2v6H360l-4,15.3Z" transform="translate(0.5 0.2)"/></svg>